# xmcd
# Track frame offsets:
# 180
# 15019
# 27850
# 44099
# 61400
# 81207
# 92951
# 111250
# 127538
# 144897
#
# Disc length: 2155 seconds
# Revision: 0
# Processed by: cddbd v1.4PL0 Copyright (c) Steve Scherf et al.
# Submitted via: VisiTrax 2.9.5.181 - For more info visit www.synapsa.com
#
DISCID=7408690a
DTITLE=Woman's Work - Tracey Brown
DYEAR=1998
DGENRE=
TTITLE0=Woman's Work
TTITLE1=Going, Going, Gone
TTITLE2=Returning the Faith
TTITLE3=Water Under the Bridge
TTITLE4=More About Love
TTITLE5=Moonlight and Red Wine
TTITLE6=No Love No Nothing
TTITLE7=They Think I'm a Rock
TTITLE8=Can't Cry Hard Enough
TTITLE9=Farewell Old friend
EXTD=
EXTT0=
EXTT1=
EXTT2=
EXTT3=
EXTT4=
EXTT5=
EXTT6=
EXTT7=
EXTT8=
EXTT9=
PLAYORDER=
